<svg viewBox="0 0 1024 1024" version="1.1" xmlns="http://www.w3.org/2000/svg" class=""><rect fill="#ffffff" width="1024px" height="1024px" x="0" y="0"/><g transform="matrix(2.2799609375,0,0,2.2799609375,216,216)"><path d="M64 0H128V128H64C28.6538 128 0 99.3462 0 64C0 28.6538 28.6538 0 64 0Z" fill="#C80F34"/><path d="M128 96C110.327 96 96 81.6731 96 64C96 46.3269 110.327 32 128 32" stroke="#ffffff" fill="none" stroke-width="3.653571367382254px" stroke-linecap="square"/><circle cx="64" cy="64" r="11.5" fill="#C80F34" stroke="#C80F34" stroke-width="3.653571367382254px" stroke-linecap="square"/><circle cx="64" cy="64" r="9" fill="#ffffff" stroke="#ffffff" stroke-width="3.653571367382254px" stroke-linecap="square"/></g><g transform="matrix(2.2799609375,0,0,2.2799609375,516.165,216)"><g fill="none"><path d="M128 128C128 57.3076 70.6925 6.18013e-06 1.11901e-05 0L0 128L128 128Z" fill="#C80F34"/><line x1="128" y1="64" x2="-8.87604e-09" y2="64" stroke="#ffffff" fill="none" stroke-width="3.653571367382254px" stroke-linecap="square"/><path d="M128 64L0 64" stroke="#ffffff" fill="none" stroke-width="3.653571367382254px" stroke-linecap="square"/><path d="M128 96L0 96" stroke="#ffffff" fill="none" stroke-width="3.653571367382254px" stroke-linecap="square"/></g></g><g transform="matrix(2.2799609375,0,0,2.2799609375,216,516.165)"><g fill="none"><path d="M64 0H128V128H64C28.6538 128 0 99.3462 0 64C0 28.6538 28.6538 0 64 0Z" fill="#C80F34"/><line x1="8.74228e-08" y1="64" x2="128" y2="64" stroke="#ffffff" fill="none" stroke-width="3.653571367382254px" stroke-linecap="square"/><circle cx="64" cy="64" r="11.5" fill="#C80F34" stroke="#C80F34" stroke-width="3.653571367382254px" stroke-linecap="square"/><circle cx="64" cy="64" r="9" fill="#ffffff" stroke="#ffffff" stroke-width="3.653571367382254px" stroke-linecap="square"/><circle cx="112" cy="64" r="11.5" fill="#C80F34" stroke="#C80F34" stroke-width="3.653571367382254px" stroke-linecap="square"/><circle cx="112" cy="64" r="9" fill="#ffffff" stroke="#ffffff" stroke-width="3.653571367382254px" stroke-linecap="square"/></g></g><g transform="matrix(2.2799609375,0,0,2.2799609375,516.165,516.165)"><g fill="none"><path d="M64 128H0L5.59506e-06 0L64 5.59506e-06C99.3462 8.68512e-06 128 28.6538 128 64C128 99.3462 99.3462 128 64 128Z" fill="#C80F34"/><path d="M-0.00292969 0L127.997 128" stroke="#ffffff" stroke-linecap="square" fill="none" stroke-width="3.653571367382254px"/><path fill-rule="evenodd" clip-rule="evenodd" d="M80 64C80 72.8366 72.8366 80 64 80C55.1634 80 48 72.8366 48 64C48 55.1634 55.1634 48 64 48C72.8366 48 80 55.1634 80 64ZM64 72C68.4183 72 72 68.4183 72 64C72 59.5817 68.4183 56 64 56C59.5817 56 56 59.5817 56 64C56 68.4183 59.5817 72 64 72Z" fill="#ffffff"/></g></g></svg>